<svg width="18" height="18" viewBox="0 0 18 18" fill="none" xmlns="http://www.w3.org/2000/svg">
<path d="M13.6275 8.49999H14.2311L13.8043 8.07321L10.8943 5.16321C10.6994 4.96834 10.6994 4.65413 10.8943 4.45926C11.0904 4.26311 11.4103 4.26645 11.5959 4.45695L11.5985 4.45958L15.7982 8.64426C15.7983 8.64432 15.7983 8.64437 15.7984 8.64442C15.9931 8.83931 15.993 9.15339 15.7982 9.34821L11.6057 13.5407C11.4109 13.7356 11.0966 13.7356 10.9018 13.5407C10.7069 13.3458 10.7069 13.0316 10.9018 12.8368L13.8118 9.92676L14.2386 9.49999H13.635H2.25C1.97557 9.49999 1.75 9.27441 1.75 8.99999C1.75 8.72556 1.97557 8.49999 2.25 8.49999H13.6275Z" fill="#7C859B" stroke="#16181D" stroke-width="0.5"/>
</svg>
