<svg width="42" height="42" viewBox="0 0 42 42" fill="none" xmlns="http://www.w3.org/2000/svg">
<g clip-path="url(#clip0_801_295)">
<path d="M21 24.8068C23.0675 24.8068 24.7435 23.1024 24.7435 21C24.7435 18.8976 23.0675 17.1932 21 17.1932C18.9325 17.1932 17.2565 18.8976 17.2565 21C17.2565 23.1024 18.9325 24.8068 21 24.8068Z" fill="#61DAFB"/>
<path d="M21 28.7993C32.0937 28.7993 41.0869 25.3074 41.0869 21C41.0869 16.6926 32.0937 13.2007 21 13.2007C9.90626 13.2007 0.913025 16.6926 0.913025 21C0.913025 25.3074 9.90626 28.7993 21 28.7993Z" stroke="#61DAFB"/>
<path d="M14.3579 24.8996C19.9048 34.6695 27.3751 40.8437 31.0434 38.69C34.7117 36.5363 33.1888 26.8703 27.642 17.1004C22.0951 7.33048 14.6248 1.15632 10.9565 3.31003C7.28818 5.46374 8.81105 15.1297 14.3579 24.8996Z" stroke="#61DAFB"/>
<path d="M14.3579 17.1004C8.81107 26.8703 7.28819 36.5363 10.9565 38.69C14.6248 40.8437 22.0951 34.6695 27.642 24.8996C33.1889 15.1297 34.7117 5.46373 31.0434 3.31003C27.3752 1.15632 19.9048 7.33047 14.3579 17.1004Z" stroke="#61DAFB"/>
</g>
<defs>
<clipPath id="clip0_801_295">
<rect width="42" height="38" fill="white" transform="translate(0 2)"/>
</clipPath>
</defs>
</svg>
