<svg width="36" height="36" viewBox="0 0 36 36" fill="none" xmlns="http://www.w3.org/2000/svg">
<rect width="36" height="36" rx="4" fill="#16181D"/>
<path d="M22.125 12C22.7475 12 23.25 12.5025 23.25 13.125V22.875C23.25 23.4975 22.7475 24 22.125 24C21.5025 24 21 23.4975 21 22.875V13.125C21 12.5025 21.5025 12 22.125 12ZM13.125 19.5C13.7475 19.5 14.25 20.0025 14.25 20.625V22.875C14.25 23.4975 13.7475 24 13.125 24C12.5025 24 12 23.4975 12 22.875V20.625C12 20.0025 12.5025 19.5 13.125 19.5ZM17.625 15.75C18.2475 15.75 18.75 16.2525 18.75 16.875V22.875C18.75 23.4975 18.2475 24 17.625 24C17.0025 24 16.5 23.4975 16.5 22.875V16.875C16.5 16.2525 17.0025 15.75 17.625 15.75Z" fill="#61DAFB"/>
</svg>
