<svg width="36" height="36" viewBox="0 0 36 36" fill="none" xmlns="http://www.w3.org/2000/svg">
<rect width="36" height="36" rx="18" fill="#242424"/>
<g clip-path="url(#clip0_801_253)">
<path d="M18 20.05C19.1322 20.05 20.05 19.1322 20.05 18C20.05 16.8678 19.1322 15.95 18 15.95C16.8678 15.95 15.95 16.8678 15.95 18C15.95 19.1322 16.8678 20.05 18 20.05Z" fill="#61DAFB"/>
<path d="M18 22.2C24.0751 22.2 29 20.3196 29 18C29 15.6804 24.0751 13.8 18 13.8C11.9249 13.8 7 15.6804 7 18C7 20.3196 11.9249 22.2 18 22.2Z" stroke="#61DAFB"/>
<path d="M14.3627 20.1C17.4003 25.3612 21.4912 28.6861 23.5 27.5263C25.5088 26.3665 24.6749 21.1612 21.6373 15.9C18.5997 10.6388 14.5088 7.31392 12.5 8.47372C10.4912 9.63352 11.3251 14.8388 14.3627 20.1Z" stroke="#61DAFB"/>
<path d="M14.3627 15.9C11.3251 21.1612 10.4912 26.3665 12.5 27.5263C14.5088 28.6861 18.5997 25.3612 21.6373 20.1C24.6749 14.8388 25.5088 9.63351 23.5 8.47372C21.4912 7.31392 17.4003 10.6388 14.3627 15.9Z" stroke="#61DAFB"/>
</g>
<defs>
<clipPath id="clip0_801_253">
<rect width="23" height="20.4635" fill="white" transform="translate(6.5 7.76826)"/>
</clipPath>
</defs>
</svg>
