<svg width="36" height="36" viewBox="0 0 36 36" fill="none" xmlns="http://www.w3.org/2000/svg">
<rect width="36" height="36" rx="4" fill="#16181D"/>
<path d="M16.425 11.7H19.575C19.944 11.7 20.25 11.394 20.25 11.025C20.25 10.656 19.944 10.35 19.575 10.35H16.425C16.056 10.35 15.75 10.656 15.75 11.025C15.75 11.394 16.056 11.7 16.425 11.7Z" fill="#61DAFB"/>
<path d="M22.905 14.949L23.4 14.454C23.661 14.193 23.661 13.761 23.4 13.5C23.139 13.239 22.707 13.239 22.446 13.5L21.951 13.995C20.601 12.906 18.801 12.366 16.875 12.699C14.346 13.14 12.294 15.156 11.817 17.676C10.98 22.113 14.796 25.92 19.224 25.083C21.744 24.606 23.76 22.554 24.201 20.025C24.534 18.099 23.994 16.299 22.905 14.949ZM18.675 19.125C18.675 19.494 18.369 19.8 18 19.8C17.631 19.8 17.325 19.494 17.325 19.125V15.975C17.325 15.606 17.631 15.3 18 15.3C18.369 15.3 18.675 15.606 18.675 15.975V19.125Z" fill="#61DAFB"/>
</svg>
